<?xml version="1.0" encoding="utf-8"?>
<!-- Generator: Adobe Illustrator 15.0.0, SVG Export Plug-In . SVG Version: 6.00 Build 0)  -->
<!DOCTYPE svg PUBLIC "-//W3C//DTD SVG 1.1//EN" "http://www.w3.org/Graphics/SVG/1.1/DTD/svg11.dtd">
<svg version="1.1" id="Layer_1" xmlns="http://www.w3.org/2000/svg" xmlns:xlink="http://www.w3.org/1999/xlink" x="0px" y="0px"
	 width="155px" height="155px" viewBox="0 0 155 155" enable-background="new 0 0 155 155" xml:space="preserve">
<circle fill="#FAA635" cx="77.5" cy="77.5" r="75"/>
<path fill="#FFFFFF" d="M87.703,35H105v52.904c0,6.916-0.627,12.238-1.876,15.962c-1.683,4.864-4.731,8.771-9.147,11.716
	S83.734,120,76.503,120c-8.483,0-15.011-2.309-19.584-6.927c-4.573-4.617-6.88-11.392-6.919-20.323l16.359-1.824
	c0.195,4.788,0.918,8.172,2.17,10.147c1.876,3.003,4.729,4.504,8.561,4.504c3.869,0,6.605-1.073,8.208-3.222
	c1.603-2.146,2.405-6.604,2.405-13.369V35z"/>
</svg>
